<?xml version="1.0" encoding="UTF-8"?>
<svg id="Ebene_1" xmlns="http://www.w3.org/2000/svg" xmlns:xlink="http://www.w3.org/1999/xlink" version="1.1" viewBox="0 0 841.9 228.4">
  <defs>
    <style>
      .st0 {
        fill: url(#Unbenannter_Verlauf_2);
      }

      .st1 {
        fill: #fff;
      }
    </style>
    <linearGradient id="Unbenannter_Verlauf_2" data-name="Unbenannter Verlauf 2" x1="44.56" y1="-30.89" x2="169.83" y2="-161.06" gradientTransform="translate(0 205.28)" gradientUnits="userSpaceOnUse">
      <stop offset="0" stop-color="#8fc046"/>
      <stop offset="1" stop-color="#1084c0"/>
    </linearGradient>
  </defs>
  <g>
    <path class="st1" d="M229.5,119.2c.2,2.9.7,5.4,1.5,7.6.8,2.2,1.9,3.9,3.2,5.3s2.9,2.4,4.8,3.1c1.8.7,3.9,1,6.1,1s4.1-.3,5.7-.8c1.6-.5,3-1.1,4.2-1.7,1.2-.6,2.3-1.2,3.2-1.7.9-.5,1.8-.8,2.6-.8,1.1,0,2,.4,2.5,1.3l3.9,5c-1.5,1.8-3.2,3.3-5.1,4.5s-3.9,2.2-5.9,2.9-4.1,1.2-6.3,1.5-4.2.4-6.2.4c-4,0-7.6-.7-11-2s-6.4-3.3-8.9-5.8c-2.5-2.6-4.5-5.8-5.9-9.6s-2.2-8.2-2.2-13.2c0-3.9.6-7.5,1.9-11,1.3-3.4,3.1-6.4,5.4-8.9,2.4-2.5,5.2-4.5,8.6-6,3.4-1.5,7.2-2.2,11.5-2.2,3.6,0,6.9.6,9.9,1.7,3,1.2,5.6,2.8,7.8,5s3.9,4.9,5.1,8.1,1.9,6.8,1.9,11c0,2.1-.2,3.5-.7,4.2-.4.7-1.3,1.1-2.5,1.1h-35.1ZM255.7,111c0-1.8-.2-3.4-.8-5s-1.2-2.9-2.2-4.1-2.3-2.1-3.8-2.8c-1.5-.7-3.3-1-5.4-1-4,0-7.1,1.1-9.4,3.4-2.3,2.3-3.7,5.5-4.4,9.6l26-.1h0Z"/>
    <path class="st1" d="M329.6,63.5v82.5h-8.4c-1.8,0-3-.8-3.4-2.5l-1.2-5.5c-2.3,2.6-4.9,4.8-7.9,6.4s-6.5,2.4-10.4,2.4c-3.1,0-6-.6-8.5-1.9-2.6-1.3-4.8-3.2-6.7-5.6s-3.3-5.5-4.3-9.1c-1-3.6-1.5-7.8-1.5-12.4,0-4.2.6-8.1,1.7-11.8s2.8-6.8,4.9-9.4c2.1-2.7,4.7-4.8,7.7-6.2,3-1.5,6.4-2.2,10.1-2.2,3.2,0,5.9.5,8.2,1.5s4.3,2.3,6,4.1v-30l13.7-.3h0ZM315.9,103.6c-1.5-1.9-3.2-3.2-5.1-4s-3.8-1.2-5.9-1.2-3.9.4-5.6,1.2-3.1,1.9-4.3,3.5-2.1,3.6-2.7,6-.9,5.3-.9,8.6.3,6.2.8,8.5,1.3,4.2,2.3,5.7,2.2,2.5,3.7,3.2c1.4.6,3,1,4.8,1,2.9,0,5.3-.6,7.3-1.8s3.9-2.9,5.7-5.1l-.1-25.6h0Z"/>
    <path class="st1" d="M394.1,89v57h-8.4c-1.8,0-3-.8-3.4-2.5l-.9-4.6c-2.3,2.4-4.9,4.3-7.7,5.7s-6.1,2.2-9.9,2.2c-3.1,0-5.9-.5-8.2-1.6-2.4-1.1-4.4-2.5-6-4.5-1.6-1.9-2.9-4.2-3.7-6.9-.8-2.6-1.2-5.6-1.2-8.7v-36.1h13.7v36.2c0,3.5.8,6.2,2.4,8.1,1.6,1.9,4,2.9,7.2,2.9,2.4,0,4.6-.5,6.7-1.6s4-2.5,5.9-4.4v-41.2h13.5Z"/>
    <path class="st1" d="M423.1,63.5v82.5h-13.7V63.5h13.7Z"/>
    <path class="st1" d="M487.7,89v57h-8.4c-1.8,0-3-.8-3.4-2.5l-.9-4.6c-2.3,2.4-4.9,4.3-7.7,5.7s-6.1,2.2-9.9,2.2c-3.1,0-5.9-.5-8.2-1.6-2.4-1.1-4.4-2.5-6-4.5-1.6-1.9-2.9-4.2-3.7-6.9-.8-2.6-1.2-5.6-1.2-8.7v-36.1h13.7v36.2c0,3.5.8,6.2,2.4,8.1,1.6,1.9,4,2.9,7.2,2.9,2.4,0,4.6-.5,6.7-1.6s4-2.5,5.9-4.4v-41.2h13.5Z"/>
    <path class="st1" d="M560.3,146h-13.7v-46.7h-26.4v30.9c0,1.8.4,3.2,1.3,4.2s2.1,1.5,3.6,1.5c.8,0,1.6-.1,2.1-.3.6-.2,1.1-.4,1.5-.6.4-.2.8-.4,1.1-.6.3-.2.7-.3,1-.3.4,0,.7.1,1,.3s.5.5.8.9l4.1,6.7c-2,1.7-4.3,2.9-6.9,3.8s-5.3,1.3-8,1.3c-5,0-8.8-1.4-11.4-4.2s-4-6.6-4-11.6v-32h-5.8c-.7,0-1.4-.2-1.9-.7s-.8-1.2-.8-2.2v-5.4l9.2-1.6,2.9-15.4c.2-.7.5-1.3,1-1.7.5-.4,1.2-.6,2-.6h7.1v17.9h40.1l.1,56.4h0ZM562.7,72.2c0,1.2-.2,2.3-.7,3.4s-1.1,2-1.9,2.8-1.7,1.4-2.8,1.9-2.2.7-3.5.7-2.3-.2-3.3-.7-1.9-1.1-2.7-1.9-1.4-1.7-1.9-2.8c-.5-1.1-.7-2.2-.7-3.4s.2-2.4.7-3.4,1.1-2,1.9-2.8c.8-.8,1.7-1.4,2.7-1.9s2.1-.7,3.3-.7,2.4.2,3.5.7,2,1.1,2.8,1.9,1.4,1.7,1.9,2.8c.4,1.1.7,2.2.7,3.4Z"/>
    <path class="st1" d="M600.8,88.2c4.2,0,8.1.7,11.5,2.1,3.5,1.4,6.4,3.3,8.9,5.8s4.4,5.6,5.7,9.2,2,7.7,2,12.2-.7,8.6-2,12.2-3.2,6.7-5.7,9.3-5.4,4.5-8.9,5.9-7.3,2.1-11.5,2.1-8.1-.7-11.6-2.1c-3.5-1.4-6.5-3.3-8.9-5.9-2.5-2.6-4.4-5.6-5.7-9.3-1.3-3.6-2-7.7-2-12.2s.7-8.5,2-12.2c1.3-3.6,3.3-6.7,5.7-9.2,2.5-2.5,5.4-4.5,8.9-5.8s7.4-2.1,11.6-2.1ZM600.8,136.3c4.7,0,8.2-1.6,10.5-4.8s3.4-7.8,3.4-14-1.1-10.8-3.4-14c-2.3-3.2-5.8-4.8-10.5-4.8s-8.4,1.6-10.7,4.9-3.5,7.9-3.5,14,1.2,10.8,3.5,14,5.9,4.7,10.7,4.7Z"/>
    <path class="st1" d="M654,96c1.2-1.2,2.4-2.2,3.6-3.2,1.3-1,2.6-1.8,4-2.5s3-1.2,4.6-1.6,3.4-.6,5.3-.6c3.1,0,5.9.5,8.3,1.6,2.4,1.1,4.4,2.5,6,4.4s2.8,4.2,3.7,6.8c.8,2.7,1.2,5.6,1.2,8.7v36.4h-13.7v-36.2c0-3.5-.8-6.2-2.4-8.1s-4-2.9-7.3-2.9c-2.4,0-4.6.5-6.7,1.6-2.1,1.1-4,2.5-5.9,4.4v41.2h-13.7v-57h8.4c1.8,0,2.9.8,3.5,2.5l1.1,4.5h0Z"/>
    <path class="st1" d="M708.8,141.7c0-.7.1-1.4.4-2s.6-1.2,1.1-1.6c.5-.5,1-.8,1.6-1.1s1.3-.4,2-.4,1.4.1,2,.4,1.2.6,1.6,1.1c.5.5.8,1,1.1,1.6s.4,1.3.4,2-.1,1.4-.4,2c-.3.6-.7,1.1-1.1,1.6-.5.5-1,.8-1.6,1.1s-1.3.4-2,.4c-1.4,0-2.7-.5-3.6-1.5s-1.5-2.1-1.5-3.6h0Z"/>
    <path class="st1" d="M746.5,71.7c0,.7-.1,1.3-.4,1.9-.3.6-.6,1.1-1.1,1.5-.4.4-1,.8-1.5,1.1-.6.3-1.2.4-1.9.4s-1.3-.1-1.9-.4-1.1-.6-1.5-1.1-.8-.9-1-1.5c-.3-.6-.4-1.2-.4-1.9s.1-1.3.4-1.9.6-1.1,1-1.6,1-.8,1.5-1.1c.6-.3,1.2-.4,1.9-.4s1.3.1,1.9.4c.6.3,1.1.6,1.5,1.1s.8,1,1.1,1.6.4,1.3.4,1.9ZM744.2,90.8v55.2h-5.3v-55.2h5.3Z"/>
    <path class="st1" d="M784.3,89.9c4,0,7.5.7,10.6,2s5.8,3.3,7.9,5.7c2.2,2.5,3.8,5.5,4.9,9,1.1,3.5,1.7,7.4,1.7,11.7s-.6,8.2-1.7,11.7c-1.1,3.5-2.8,6.5-4.9,8.9-2.2,2.5-4.8,4.4-7.9,5.7-3.1,1.3-6.7,2-10.6,2s-7.5-.7-10.6-2-5.8-3.2-7.9-5.7c-2.2-2.5-3.8-5.5-4.9-8.9-1.1-3.5-1.7-7.4-1.7-11.7s.6-8.2,1.7-11.7,2.8-6.5,4.9-9c2.2-2.5,4.8-4.4,7.9-5.7s6.7-2,10.6-2ZM784.3,142.5c3.3,0,6.2-.6,8.6-1.7s4.5-2.8,6.2-4.9c1.7-2.1,2.9-4.6,3.7-7.6s1.2-6.3,1.2-10-.4-7-1.2-10-2-5.6-3.7-7.7-3.7-3.8-6.2-4.9c-2.5-1.2-5.3-1.7-8.6-1.7s-6.2.6-8.6,1.7-4.5,2.8-6.2,4.9-2.9,4.7-3.7,7.7-1.2,6.3-1.2,10,.4,7,1.2,10,2.1,5.5,3.7,7.6c1.7,2.1,3.7,3.7,6.2,4.9s5.3,1.7,8.6,1.7Z"/>
  </g>
  <path class="st0" d="M137.9,163c-1.3.1-2.6.1-3.9.1-24.4,0-46.7-8.9-57.1-28.2,5.9.9,11.9,1.2,17.8,1.2,41.9,0,79.6-17.5,79.6-52.9,0-29.4-25.9-51.7-63.3-51.7-45.2,0-78.7,32.4-78.7,81.4,0,56.5,45.2,83.6,96.4,84.1l9.2-34h0ZM109.4,64.4c14.6,0,27.3,8.6,27.3,20.2,0,16.3-24.4,23.5-49.3,23.5-5.7,0-11-.3-16.3-1.2.8-29.7,20.4-42.5,38.3-42.5Z"/>
</svg>
